<svg xmlns="http://www.w3.org/2000/svg" width="30" height="30" viewBox="0 0 30 30"><path d="M15 0c-8.284 0-15 6.716-15 15s6.716 15 15 15 15-6.716 15-15-6.716-15-15-15zm0 7c2.209 0 4 1.791 4 4s-1.791 4-4 4-4-1.791-4-4 1.791-4 4-4zm6.651 19.154l-1.651-4.101-.652 5.187c-1.362.483-2.821.76-4.348.76s-2.986-.277-4.348-.761l-.652-5.186-1.651 4.102c-1.029-.615-1.966-1.364-2.785-2.23.643-2.312 1.699-5.829 2.436-6.839.857-1.175 5.054-1.136 7-1.05 1.946-.086 6.143-.125 7 1.05.736 1.01 1.793 4.527 2.436 6.838-.819.866-1.755 1.615-2.785 2.23z" fill-rule="evenodd" clip-rule="evenodd" fill="#BFBFBF"/></svg>