<svg xmlns="http://www.w3.org/2000/svg" width="30" height="30" viewBox="0 0 96 96" enable-background="new 0 0 96 96"><style type="text/css">.st0{fill:#BFBFBF;}</style><path class="st0" d="M55.6 71.4c-.4 1 .1 2 1.1 2.4.2.1.4.1.6.1.7 0 1.5-.5 1.7-1.2v-.1c.3-1-.2-2-1.1-2.3-.9-.3-2 .2-2.3 1.1zM48 74.6c-1.1 0-1.9.8-1.9 1.8s.8 1.8 1.8 1.8h.1c1 0 1.8-.8 1.8-1.9.1-.8-.7-1.7-1.8-1.7zM52.7 73.8c-1 .4-1.5 1.5-1.1 2.4.3.7 1 1.2 1.7 1.2.2 0 .5 0 .7-.1h.1c.9-.4 1.4-1.5 1-2.4-.4-1-1.5-1.5-2.4-1.1zM43.3 73.8c-1-.4-2 .1-2.4 1-.4 1 .1 2 1 2.4h.1c.2.1.4.1.7.1.7 0 1.4-.5 1.7-1.2.4-.8-.1-1.9-1.1-2.3zM37.9 70.5c-1 .4-1.4 1.4-1 2.4v.1c.3.7 1 1.2 1.7 1.2l.7-.1c.9-.4 1.4-1.5 1-2.4-.3-1.1-1.4-1.6-2.4-1.2zM33.1 63.1c4.1 3.6 9.3 5.6 14.8 5.6 5.3 0 10.3-1.9 14.3-5.2 2.3 6.2 12.6 7.9 12.6 7.9v-27.5c0-15.1-12.2-27.3-27.3-27.3h-.3c-12.7 0-15.4 10.6-15.4 10.6-11.6 4-11.6 15.3-11.6 15.3v28.7c8 .8 11.5-5.4 12.9-8.1zm14.7 3.2c-4.9 0-9.4-2.1-12.6-5.4-3.1-3.2-4.9-7.5-4.9-12.2 0-1.6.2-3.2.6-4.6 2.5-1.5 6.1-4.2 7.7-8 0 0 2.8 3.2 8.1 6.3 1.1.6 2.3 1.3 3.7 1.9 4 1.8 9 3.3 15 3.6v.9c0 4.7-1.9 9-4.9 12.2-3.2 3.2-7.7 5.3-12.7 5.3zM48 0c-26.5 0-48 21.5-48 48 0 14.7 6.6 27.8 17 36.6 8.3 7.1 19.2 11.4 31 11.4s22.7-4.3 31-11.4c10.4-8.8 17-21.9 17-36.6 0-26.5-21.5-48-48-48zm29.1 78.3c-.3-.2-.7-.4-1.1-.6l-12.2-4.3c-1.9-.7-4.1 0-5.3 1.7l-10.5 14.9-10.5-14.9c-1.2-1.7-3.3-2.4-5.3-1.7l-12.2 4.3c-.4.1-.7.3-1.1.6-7.9-7.7-12.9-18.4-12.9-30.3 0-23.2 18.8-42 42-42s42 18.8 42 42c0 11.9-5 22.6-12.9 30.3z"/></svg>