<?xml version="1.0" encoding="utf-8"?>
<!-- Generator: Adobe Illustrator 19.0.0, SVG Export Plug-In . SVG Version: 6.00 Build 0)  -->
<svg version="1.1" id="Layer_1" xmlns="http://www.w3.org/2000/svg" xmlns:xlink="http://www.w3.org/1999/xlink" x="0px" y="0px" width="30" height="30"
	 viewBox="-464 266 30 30" style="enable-background:new -464 266 30 30;" xml:space="preserve">
<style type="text/css">
	.st0{fill:#BFBFBF;}
	.st1{fill:#FFFFFF;}
	.st2{clip-path:url(#SVGID_2_);}
</style>
<circle class="st0" cx="-449" cy="281" r="15"/>
<circle class="st1" cx="-449" cy="277" r="4"/>
<path class="st1" d="M-442.35,292.15l-1.65-4.1l-0.65,5.19c-1.36,0.48-2.82,0.76-4.35,0.76s-2.99-0.28-4.35-0.76l-0.65-5.19
	l-1.65,4.1c-1.03-0.61-1.97-1.36-2.79-2.23c0.64-2.31,1.7-5.83,2.44-6.84c0.86-1.17,5.05-1.14,7-1.05c1.95-0.09,6.14-0.13,7,1.05
	c0.74,1.01,1.79,4.53,2.44,6.84C-440.38,290.79-441.32,291.54-442.35,292.15z"/>
<g>
	<defs>
		<circle id="SVGID_1_" cx="-449" cy="281" r="13"/>
	</defs>
	<clipPath id="SVGID_2_">
		<use xlink:href="#SVGID_1_"  style="overflow:visible;"/>
	</clipPath>
	<g class="st2">
		<circle class="st0" cx="-449" cy="287" r="2.67"/>
		<ellipse class="st0" cx="-448.95" cy="293.33" rx="3.73" ry="3.09"/>
	</g>
</g>
</svg>
